HIERARCHY
ROOT Hips
{
  OFFSET 0.187722 90.7508 -2.3685
  CHANNELS 6 Xposition Yposition Zposition Zrotation Xrotation Yrotation
  JOINT Spine
  {
    OFFSET 0 9.9235 -1.2273
    CHANNELS 6 Xposition Yposition Zposition Zrotation Xrotation Yrotation
    JOINT Spine1
    {
      OFFSET -0.0001 11.6454 -1.4223
      CHANNELS 6 Xposition Yposition Zposition Zrotation Xrotation Yrotation
      JOINT Spine2
      {
        OFFSET 0.0001 13.3602 -1.6265
        CHANNELS 6 Xposition Yposition Zposition Zrotation Xrotation Yrotation
        JOINT Neck
        {
          OFFSET 0 15.0325 0.7929
          CHANNELS 6 Xposition Yposition Zposition Zrotation Xrotation Yrotation
          JOINT Head
          {
            OFFSET 0 10.3218 3.1424
            CHANNELS 6 Xposition Yposition Zposition Zrotation Xrotation Yrotation
            JOINT HeadTop_End
            {
              OFFSET 0.0002 18.4747 6.6364
              CHANNELS 6 Xposition Yposition Zposition Zrotation Xrotation Yrotation
              End Site
              {
                OFFSET 0 0 0
              }
            }
            JOINT LeftEye
            {
              OFFSET 2.9479 7.6817 9.1207
              CHANNELS 6 Xposition Yposition Zposition Zrotation Xrotation Yrotation
              End Site
              {
                OFFSET 0 0 0
              }
            }
            JOINT RightEye
            {
              OFFSET -2.9445 7.6817 9.1205
              CHANNELS 6 Xposition Yposition Zposition Zrotation Xrotation Yrotation
              End Site
              {
                OFFSET 0 0 0
              }
            }
          }
        }
        JOINT LeftShoulder
        {
          OFFSET 6.1058 9.1104 0.7056
          CHANNELS 6 Xposition Yposition Zposition Zrotation Xrotation Yrotation
          JOINT LeftArm
          {
            OFFSET 12.655 -0.2659 -2.6009
            CHANNELS 6 Xposition Yposition Zposition Zrotation Xrotation Yrotation
            JOINT LeftForeArm
            {
              OFFSET 27.4047 0 0
              CHANNELS 6 Xposition Yposition Zposition Zrotation Xrotation Yrotation
              JOINT LeftHand
              {
                OFFSET 27.6145 0 0
                CHANNELS 6 Xposition Yposition Zposition Zrotation Xrotation Yrotation
                JOINT LeftHandMiddle1
                {
                  OFFSET 12.7755 0 0
                  CHANNELS 6 Xposition Yposition Zposition Zrotation Xrotation Yrotation
                  JOINT LeftHandMiddle2
                  {
                    OFFSET 3.614 0 0
                    CHANNELS 6 Xposition Yposition Zposition Zrotation Xrotation Yrotation
                    JOINT LeftHandMiddle3
                    {
                      OFFSET 3.4598 0 0
                      CHANNELS 6 Xposition Yposition Zposition Zrotation Xrotation Yrotation
                      End Site
                      {
                        OFFSET 3.6802 0 0
                      }
                    }
                  }
                }
                JOINT LeftHandThumb1
                {
                  OFFSET 3.7888 -2.167 3.0031
                  CHANNELS 6 Xposition Yposition Zposition Zrotation Xrotation Yrotation
                  JOINT LeftHandThumb2
                  {
                    OFFSET 3.6754 -2.122 2.122
                    CHANNELS 6 Xposition Yposition Zposition Zrotation Xrotation Yrotation
                    JOINT LeftHandThumb3
                    {
                      OFFSET 3.3944 -1.9597 1.9598
                      CHANNELS 6 Xposition Yposition Zposition Zrotation Xrotation Yrotation
                      End Site
                      {
                        OFFSET 2.6794 -1.5469 1.5469
                      }
                    }
                  }
                }
                JOINT LeftHandIndex1
                {
                  OFFSET 12.2666 -0.2317 2.8221
                  CHANNELS 6 Xposition Yposition Zposition Zrotation Xrotation Yrotation
                  JOINT LeftHandIndex2
                  {
                    OFFSET 3.892 0 0
                    CHANNELS 6 Xposition Yposition Zposition Zrotation Xrotation Yrotation
                    JOINT LeftHandIndex3
                    {
                      OFFSET 3.4152 0 0
                      CHANNELS 6 Xposition Yposition Zposition Zrotation Xrotation Yrotation
                      End Site
                      {
                        OFFSET 3.078 0 0
                      }
                    }
                  }
                }
                JOINT LeftHandRing1
                {
                  OFFSET 12.147 0.0099 -2.2166
                  CHANNELS 6 Xposition Yposition Zposition Zrotation Xrotation Yrotation
                  JOINT LeftHandRing2
                  {
                    OFFSET 3.6012 0 0
                    CHANNELS 6 Xposition Yposition Zposition Zrotation Xrotation Yrotation
                    JOINT LeftHandRing3
                    {
                      OFFSET 3.3073 0 0
                      CHANNELS 6 Xposition Yposition Zposition Zrotation Xrotation Yrotation
                      End Site
                      {
                        OFFSET 3.6601 0 0
                      }
                    }
                  }
                }
                JOINT LeftHandPinky1
                {
                  OFFSET 10.9082 -0.2264 -4.7258
                  CHANNELS 6 Xposition Yposition Zposition Zrotation Xrotation Yrotation
                  JOINT LeftHandPinky2
                  {
                    OFFSET 4.1367 0 0
                    CHANNELS 6 Xposition Yposition Zposition Zrotation Xrotation Yrotation
                    JOINT LeftHandPinky3
                    {
                      OFFSET 2.5948 0 0
                      CHANNELS 6 Xposition Yposition Zposition Zrotation Xrotation Yrotation
                      End Site
                      {
                        OFFSET 2.9239 0 0
                      }
                    }
                  }
                }
              }
            }
          }
        }
        JOINT RightShoulder
        {
          OFFSET -6.1057 9.1105 0.7056
          CHANNELS 6 Xposition Yposition Zposition Zrotation Xrotation Yrotation
          JOINT RightArm
          {
            OFFSET -12.655 -0.266 -2.6009
            CHANNELS 6 Xposition Yposition Zposition Zrotation Xrotation Yrotation
            JOINT RightForeArm
            {
              OFFSET -27.4047 0 0
              CHANNELS 6 Xposition Yposition Zposition Zrotation Xrotation Yrotation
              JOINT RightHand
              {
                OFFSET -27.6145 0 0
                CHANNELS 6 Xposition Yposition Zposition Zrotation Xrotation Yrotation
                JOINT RightHandMiddle1
                {
                  OFFSET -12.7755 0 0
                  CHANNELS 6 Xposition Yposition Zposition Zrotation Xrotation Yrotation
                  JOINT RightHandMiddle2
                  {
                    OFFSET -3.614 0 0
                    CHANNELS 6 Xposition Yposition Zposition Zrotation Xrotation Yrotation
                    JOINT RightHandMiddle3
                    {
                      OFFSET -3.4598 0 0
                      CHANNELS 6 Xposition Yposition Zposition Zrotation Xrotation Yrotation
                      End Site
                      {
                        OFFSET -3.6802 0 0
                      }
                    }
                  }
                }
                JOINT RightHandThumb1
                {
                  OFFSET -3.7888 -2.167 3.0031
                  CHANNELS 6 Xposition Yposition Zposition Zrotation Xrotation Yrotation
                  JOINT RightHandThumb2
                  {
                    OFFSET -3.6754 -2.122 2.122
                    CHANNELS 6 Xposition Yposition Zposition Zrotation Xrotation Yrotation
                    JOINT RightHandThumb3
                    {
                      OFFSET -3.3944 -1.9597 1.9598
                      CHANNELS 6 Xposition Yposition Zposition Zrotation Xrotation Yrotation
                      End Site
                      {
                        OFFSET -2.6794 -1.5469 1.5469
                      }
                    }
                  }
                }
                JOINT RightHandIndex1
                {
                  OFFSET -12.2666 -0.2317 2.8221
                  CHANNELS 6 Xposition Yposition Zposition Zrotation Xrotation Yrotation
                  JOINT RightHandIndex2
                  {
                    OFFSET -3.892 0 0
                    CHANNELS 6 Xposition Yposition Zposition Zrotation Xrotation Yrotation
                    JOINT RightHandIndex3
                    {
                      OFFSET -3.4152 0 0
                      CHANNELS 6 Xposition Yposition Zposition Zrotation Xrotation Yrotation
                      End Site
                      {
                        OFFSET -3.078 0 0
                      }
                    }
                  }
                }
                JOINT RightHandRing1
                {
                  OFFSET -12.147 0.0099 -2.2166
                  CHANNELS 6 Xposition Yposition Zposition Zrotation Xrotation Yrotation
                  JOINT RightHandRing2
                  {
                    OFFSET -3.6012 0 0
                    CHANNELS 6 Xposition Yposition Zposition Zrotation Xrotation Yrotation
                    JOINT RightHandRing3
                    {
                      OFFSET -3.3073 0 0
                      CHANNELS 6 Xposition Yposition Zposition Zrotation Xrotation Yrotation
                      End Site
                      {
                        OFFSET -3.6601 0 0
                      }
                    }
                  }
                }
                JOINT RightHandPinky1
                {
                  OFFSET -10.9082 -0.2264 -4.7258
                  CHANNELS 6 Xposition Yposition Zposition Zrotation Xrotation Yrotation
                  JOINT RightHandPinky2
                  {
                    OFFSET -4.1367 0 0
                    CHANNELS 6 Xposition Yposition Zposition Zrotation Xrotation Yrotation
                    JOINT RightHandPinky3
                    {
                      OFFSET -2.5948 0 0
                      CHANNELS 6 Xposition Yposition Zposition Zrotation Xrotation Yrotation
                      End Site
                      {
                        OFFSET -2.9239 0 0
                      }
                    }
                  }
                }
              }
            }
          }
        }
      }
    }
  }
  JOINT RightUpLeg
  {
    OFFSET -9.1245 -6.6564 -0.0554
    CHANNELS 6 Xposition Yposition Zposition Zrotation Xrotation Yrotation
    JOINT RightLeg
    {
      OFFSET -0.2447 -40.5954 -0.5145
      CHANNELS 6 Xposition Yposition Zposition Zrotation Xrotation Yrotation
      JOINT RightFoot
      {
        OFFSET 0.2447 -42.0479 -2.0602
        CHANNELS 6 Xposition Yposition Zposition Zrotation Xrotation Yrotation
        JOINT RightToeBase
        {
          OFFSET -0.3734 -10.4922 12.6407
          CHANNELS 6 Xposition Yposition Zposition Zrotation Xrotation Yrotation
          End Site
          {
            OFFSET 0 0 9.9925
          }
        }
      }
    }
  }
  JOINT LeftUpLeg
  {
    OFFSET 9.1245 -6.6564 -0.0554
    CHANNELS 6 Xposition Yposition Zposition Zrotation Xrotation Yrotation
    JOINT LeftLeg
    {
      OFFSET 0.2447 -40.5954 -0.517
      CHANNELS 6 Xposition Yposition Zposition Zrotation Xrotation Yrotation
      JOINT LeftFoot
      {
        OFFSET -0.2447 -42.048 -2.0576
        CHANNELS 6 Xposition Yposition Zposition Zrotation Xrotation Yrotation
        JOINT LeftToeBase
        {
          OFFSET 0.3734 -10.4922 12.6407
          CHANNELS 6 Xposition Yposition Zposition Zrotation Xrotation Yrotation
          End Site
          {
            OFFSET 0 0 9.9925
          }
        }
      }
    }
  }
}
MOTION
Frames:	4
Frame Time:	0.0166667
1.01836 95.1079 179.169 -0.479055 3.24102 -24.1864 0 9.9235 -1.2273 -0.41683 7.74455 1.11327 -0.0001 11.6454 -1.4223 -1.20459 15.476 2.4066 0.0001 13.3602 -1.6265 -1.20458 15.476 2.40659 0 15.0325 0.7929 -2.05295 3.75955 -9.58471 0 10.3218 3.1424 11.1222 15.2062 -3.9913 0.0002 18.4747 6.6364 -0 0 3.18055e-015 2.9479 7.6817 9.1207 -0 0 3.18055e-015 -2.9445 7.6817 9.1205 -0 0 3.18055e-015 6.1058 9.1104 0.7056 -8.96419 1.65333 -6.55533 12.655 -0.2659 -2.6009 -26.67 13.5786 -40.4784 27.4047 2.84217e-014 -7.10543e-015 0.967193 -0.38479 -111.712 27.6145 2.84217e-014 0 42.5345 29.6358 -9.90542 12.7755 0 -1.42109e-014 -19.7818 -2.31216 5.21584 3.614 0 0 -22.5364 0.0979683 -1.28139 3.4598 0 -1.42109e-014 3.18055e-015 -3.18055e-015 -7.95139e-015 3.7888 -2.167 3.0031 5.55813 -8.2874 4.88362 3.6754 -2.122 2.122 -0.558001 0.343976 1.6346 3.3944 -1.9597 1.9598 -8.45277e-005 -0.000590081 -0.00109839 12.2666 -0.2317 2.8221 -8.76054 -12.0936 6.36612 3.892 0 0 -13.6405 -0.225512 1.09532 3.4152 0 1.42109e-014 3.53113e-031 3.18055e-015 -6.36111e-015 12.147 0.0099 -2.2166 -26.0545 -1.8682 9.97045 3.6012 0 1.42109e-014 -24.4064 0.101908 -0.516194 3.3073 0 -1.42109e-014 -6.63566e-006 -4.51014e-006 5.33625e-006 10.9082 -0.2264 -4.7258 -33.6581 2.81331 16.8072 4.1367 2.84217e-014 1.42109e-014 -22.1648 0.647398 -2.32422 2.5948 5.68434e-014 1.42109e-014 3.18055e-015 -6.36111e-015 -0 -6.1057 9.1105 0.7056 4.24335 0.615933 1.54584 -12.655 -0.266 -2.6009 -1.00306 7.89273 78.6887 -27.4047 0 0 -1.80243 0.960344 61.9661 -27.6145 2.84217e-014 -1.42109e-014 13.3965 12.1485 2.38397 -12.7755 0 -1.42109e-014 62.0622 -7.49771 2.18927 -3.614 0 7.10543e-015 63.0285 -3.18251 -0.227827 -3.4598 0 -7.10543e-015 -1.19271e-015 3.8763e-015 3.18055e-015 -3.7888 -2.167 3.0031 -2.06715 -0.14815 -4.03234 -3.6754 -2.122 2.122 -3.16133 6.94036 -16.2875 -3.3944 -1.9597 1.9598 8.50023e-005 -0.000593416 0.00110151 -12.2666 -0.2317 2.8221 47.9625 -8.54344 -1.91965 -3.892 -2.84217e-014 7.10543e-015 48.8896 -2.91569 -7.24982 -3.4152 0 -7.10543e-015 -8.82781e-032 1.59028e-015 3.18055e-015 -12.147 0.0099 -2.2166 68.0591 -1.98649 2.58389 -3.6012 1.42109e-014 7.10543e-015 67.7732 1.87246 5.05647 -3.3073 -2.84217e-014 -1.42109e-014 -3.18055e-015 -6.42084e-007 -0 -10.9082 -0.2264 -4.7258 78.2852 3.39423 7.13356 -4.1367 0 1.42109e-014 74.8091 6.7935 14.572 -2.5948 0 0 -3.18055e-015 -3.04858e-007 -6.36111e-015 -9.1245 -6.6564 -0.0554 -0.00428224 -23.7994 8.49543 -0.2447 -40.5954 -0.5145 3.10039 54.3231 -1.81549 0.2447 -42.0479 -2.0602 3.91221 -8.33639 -11.409 -0.3734 -10.4922 12.6407 4.67393 -12.4693 1.25302 9.1245 -6.6564 -0.0554 2.29719 -24.3044 10.0903 0.2447 -40.5954 -0.517 -2.07588 40.6783 0.990579 -0.2447 -42.048 -2.0576 1.83763 -16.9683 13.6521 0.3734 -10.4922 12.6407 2.4455 -1.59051 -1.9643 
1.08215 95.2175 179.991 -0.51564 3.7154 -24.5621 0 9.9235 -1.2273 -0.443576 7.87128 1.12314 -0.0001 11.6454 -1.4223 -1.26717 15.7289 2.41402 0.0001 13.3602 -1.6265 -1.26717 15.7289 2.41401 -7.10543e-015 15.0325 0.7929 -2.06404 4.23162 -9.38605 7.10543e-015 10.3218 3.1424 11.1297 14.6114 -3.62198 0.0002 18.4747 6.6364 3.18055e-015 -3.18055e-015 3.18055e-015 2.9479 7.6817 9.1207 3.18055e-015 -3.18055e-015 3.18055e-015 -2.9445 7.6817 9.1205 3.18055e-015 -3.18055e-015 3.18055e-015 6.1058 9.1104 0.7056 -8.92667 1.64196 -6.50676 12.655 -0.2659 -2.6009 -25.7213 13.1864 -41.3985 27.4047 0 7.10543e-015 1.01205 -0.390995 -111.14 27.6145 0 0 40.5646 29.3105 -9.2261 12.7755 -1.42109e-014 2.84217e-014 -17.9028 -4.60668 5.75787 3.614 -2.84217e-014 0 -20.2177 -2.6372 0.0355423 3.4598 0 0 2.64834e-031 -3.18055e-015 4.77083e-015 3.7888 -2.167 3.0031 5.13838 -7.84069 4.00791 3.6754 -2.122 2.122 -0.557999 0.343971 1.63458 3.3944 -1.9597 1.9598 -8.45277e-005 -0.000590081 -0.00109839 12.2666 -0.2317 2.8221 -8.76107 -12.0936 6.36601 3.892 2.84217e-014 1.42109e-014 -14.3603 -2.89436 2.38069 3.4152 0 0 3.18055e-015 0 -0 12.147 0.0099 -2.2166 -23.1723 -4.63519 10.8281 3.6012 2.84217e-014 -1.42109e-014 -23.2094 -2.60173 0.75369 3.3073 0 1.42109e-014 -6.63566e-006 -4.51014e-006 5.33625e-006 10.9082 -0.2264 -4.7258 -28.0919 -1.30302 17.4603 4.1367 0 1.42109e-014 -21.9774 -2.03555 -0.945605 2.5948 0 0 1.76556e-031 6.36111e-015 -1.59028e-015 -6.1057 9.1105 0.7056 4.14646 0.597038 1.42451 -12.655 -0.266 -2.6009 -0.97973 7.33895 79.4715 -27.4047 -2.84217e-014 7.10543e-015 -1.89144 1.02808 61.4881 -27.6145 0 7.10543e-015 13.5319 12.0162 2.88189 -12.7755 2.84217e-014 -7.10543e-015 62.0622 -7.49771 2.18928 -3.614 0 -7.10543e-015 63.0284 -3.18252 -0.227797 -3.4598 0 1.42109e-014 -4.96564e-031 -2.98177e-015 -9.54166e-015 -3.7888 -2.167 3.0031 -2.06714 -0.148159 -4.03234 -3.6754 -2.122 2.122 -3.16134 6.94036 -16.2876 -3.3944 -1.9597 1.9598 8.50023e-005 -0.000593416 0.00110151 -12.2666 -0.2317 2.8221 47.9625 -8.54343 -1.91967 -3.892 -2.84217e-014 -7.10543e-015 48.8897 -2.91566 -7.24981 -3.4152 0 0 -3.18055e-015 0 -3.18055e-015 -12.147 0.0099 -2.2166 68.059 -1.98651 2.58387 -3.6012 2.84217e-014 0 67.7732 1.87248 5.05645 -3.3073 0 -7.10543e-015 1.59028e-015 -6.42084e-007 -1.27222e-014 -10.9082 -0.2264 -4.7258 78.2852 3.39422 7.13357 -4.1367 0 7.10543e-015 74.8091 6.7935 14.5721 -2.5948 0 0 -3.18055e-015 -3.04858e-007 3.18055e-015 -9.1245 -6.6564 -0.0554 0.61972 -25.4287 8.01843 -0.2447 -40.5954 -0.5145 3.08145 54.1261 -1.76008 0.2447 -42.0479 -2.0602 3.68169 -8.45286 -11.4009 -0.3734 -10.4922 12.6407 3.92963 -11.0883 1.63816 9.1245 -6.6564 -0.0554 2.38213 -24.0491 10.5045 0.2447 -40.5954 -0.517 -2.05492 40.4022 0.990679 -0.2447 -42.048 -2.0576 2.08513 -17.1317 13.6942 0.3734 -10.4922 12.6407 2.33612 -1.89432 -1.94966 
1.09431 95.3413 180.817 -0.546513 4.24376 -24.9893 0 9.9235 -1.2273 -0.483268 7.99523 1.14632 -0.0001 11.6454 -1.4223 -1.35162 15.9759 2.44728 0.0001 13.3602 -1.6265 -1.35162 15.976 2.44728 0 15.0325 0.7929 -2.03417 4.62495 -9.19735 -7.10543e-015 10.3218 3.1424 11.1086 14.0458 -3.24357 0.0002 18.4747 6.6364 -8.82781e-032 3.18055e-015 1.59028e-015 2.9479 7.6817 9.1207 -8.82781e-032 3.18055e-015 1.59028e-015 -2.9445 7.6817 9.1205 -8.82781e-032 3.18055e-015 1.59028e-015 6.1058 9.1104 0.7056 -8.9132 1.6353 -6.4736 12.655 -0.2659 -2.6009 -24.8778 12.7668 -42.4803 27.4047 2.84217e-014 1.42109e-014 1.06449 -0.391077 -110.188 27.6145 2.84217e-014 0 37.7147 28.8548 -8.50987 12.7755 -2.84217e-014 0 -15.4607 -7.52402 6.57102 3.614 0 1.42109e-014 -17.1839 -6.06087 1.88273 3.4598 5.68434e-014 0 0 0 -0 3.7888 -2.167 3.0031 4.43722 -6.95391 2.31623 3.6754 -2.122 2.122 -0.557983 0.343981 1.6346 3.3944 -1.9597 1.9598 -8.45277e-005 -0.000590081 -0.00109839 12.2666 -0.2317 2.8221 -8.76053 -12.0936 6.36611 3.892 0 1.42109e-014 -15.2018 -6.34717 3.98699 3.4152 0 1.42109e-014 -3.18055e-015 -3.18055e-015 1.59028e-015 12.147 0.0099 -2.2166 -19.4372 -8.11514 12.1363 3.6012 -2.84217e-014 -1.42109e-014 -21.5538 -6.03469 2.47002 3.3073 0 0 -6.63566e-006 -4.51014e-006 5.33625e-006 10.9082 -0.2264 -4.7258 -21.1105 -6.32786 18.8784 4.1367 0 0 -21.6358 -5.43818 0.782472 2.5948 0 0 1.76556e-031 -3.18055e-015 3.18055e-015 -6.1057 9.1105 0.7056 4.08817 0.580767 1.31149 -12.655 -0.266 -2.6009 -0.994258 6.80979 80.2116 -27.4047 0 0 -1.98478 1.0977 61.0712 -27.6145 -2.84217e-014 -1.42109e-014 13.6412 11.8474 3.40523 -12.7755 0 -7.10543e-015 62.0622 -7.49771 2.1893 -3.614 -2.84217e-014 0 63.0285 -3.18254 -0.227824 -3.4598 0 7.10543e-015 1.19271e-015 1.19271e-015 -3.18055e-015 -3.7888 -2.167 3.0031 -2.06714 -0.148158 -4.03232 -3.6754 -2.122 2.122 -3.16134 6.94036 -16.2875 -3.3944 -1.9597 1.9598 8.50023e-005 -0.000593416 0.00110151 -12.2666 -0.2317 2.8221 47.9625 -8.54346 -1.91965 -3.892 2.84217e-014 7.10543e-015 48.8897 -2.91567 -7.24984 -3.4152 0 1.42109e-014 6.36111e-015 3.18055e-015 -0 -12.147 0.0099 -2.2166 68.0591 -1.98651 2.5839 -3.6012 -2.84217e-014 0 67.7732 1.87245 5.05647 -3.3073 0 0 -3.18055e-015 -6.42084e-007 3.18055e-015 -10.9082 -0.2264 -4.7258 78.2852 3.39422 7.13357 -4.1367 0 -7.10543e-015 74.8091 6.79346 14.572 -2.5948 0 0 6.36111e-015 -3.04858e-007 1.59028e-015 -9.1245 -6.6564 -0.0554 1.37938 -26.9023 7.66383 -0.2447 -40.5954 -0.5145 2.97394 53.1586 -1.62835 0.2447 -42.0479 -2.0602 3.30018 -8.68813 -11.1975 -0.3734 -10.4922 12.6407 3.06536 -9.75498 1.94598 9.1245 -6.6564 -0.0554 2.51742 -23.781 10.9413 0.2447 -40.5954 -0.517 -2.02698 40.0391 1.0012 -0.2447 -42.048 -2.0576 2.29455 -17.292 13.7848 0.3734 -10.4922 12.6407 2.22167 -2.1774 -1.98556 
1.0312 95.4955 181.627 -0.683639 4.87009 -25.4407 1.42109e-014 9.9235 -1.2273 -0.513305 8.10899 1.17691 -0.0001 11.6454 -1.4223 -1.41367 16.2027 2.49231 0.0001 13.3602 -1.6265 -1.41367 16.2027 2.49231 7.10543e-015 15.0325 0.7929 -1.97962 5.0249 -9.01415 0 10.3218 3.1424 11.0871 13.4591 -2.87079 0.0002 18.4747 6.6364 -3.53113e-031 6.36111e-015 3.18055e-015 2.9479 7.6817 9.1207 -3.53113e-031 6.36111e-015 3.18055e-015 -2.9445 7.6817 9.1205 -3.53113e-031 6.36111e-015 3.18055e-015 6.1058 9.1104 0.7056 -8.9323 1.64015 -6.4926 12.655 -0.2659 -2.6009 -23.976 12.3122 -43.6805 27.4047 0 0 1.12559 -0.386067 -108.945 27.6145 0 0 34.2732 28.302 -7.70771 12.7755 0 0 -12.8715 -10.4627 7.32585 3.614 5.68434e-014 0 -13.782 -9.55803 3.63894 3.4598 0 1.42109e-014 3.18055e-015 -9.54166e-015 6.36111e-015 3.7888 -2.167 3.0031 3.34303 -5.38532 -0.503002 3.6754 -2.122 2.122 -0.557992 0.343971 1.6346 3.3944 -1.9597 1.9598 -8.45277e-005 -0.000590081 -0.00109839 12.2666 -0.2317 2.8221 -8.74445 -12.0919 6.36877 3.892 2.84217e-014 -1.42109e-014 -15.7335 -9.78455 5.69264 3.4152 -2.84217e-014 1.42109e-014 -0 -9.54166e-015 -0 12.147 0.0099 -2.2166 -15.4294 -11.5907 13.3309 3.6012 0 0 -19.4825 -9.52639 4.16014 3.3073 2.84217e-014 1.42109e-014 -6.63566e-006 -4.51014e-006 5.33625e-006 10.9082 -0.2264 -4.7258 -13.8045 -11.1151 19.8416 4.1367 0 0 -20.8993 -8.86733 2.48857 2.5948 -2.84217e-014 7.10543e-015 -3.18055e-015 -1.59028e-015 -3.18055e-015 -6.1057 9.1105 0.7056 3.99178 0.563122 1.19914 -12.655 -0.266 -2.6009 -1.18093 6.2702 80.9739 -27.4047 2.84217e-014 -1.42109e-014 -1.96541 1.10683 60.6302 -27.6145 0 -7.10543e-015 13.6029 11.6427 4.04571 -12.7755 0 -7.10543e-015 62.0622 -7.49771 2.18929 -3.614 0 0 63.0285 -3.18253 -0.227797 -3.4598 -1.42109e-014 7.10543e-015 1.59028e-015 -4.77083e-015 -0 -3.7888 -2.167 3.0031 -2.06713 -0.148149 -4.03231 -3.6754 -2.122 2.122 -3.16135 6.94035 -16.2875 -3.3944 -1.9597 1.9598 8.50023e-005 -0.000593416 0.00110151 -12.2666 -0.2317 2.8221 47.9625 -8.54344 -1.91965 -3.892 0 0 48.8897 -2.91568 -7.24984 -3.4152 0 0 -3.18055e-015 7.95139e-015 -3.18055e-015 -12.147 0.0099 -2.2166 68.059 -1.9865 2.58389 -3.6012 -1.42109e-014 7.10543e-015 67.7732 1.87246 5.05646 -3.3073 0 7.10543e-015 6.36111e-015 -6.42084e-007 3.18055e-015 -10.9082 -0.2264 -4.7258 78.2852 3.39422 7.13355 -4.1367 0 7.10543e-015 74.8092 6.79351 14.5721 -2.5948 0 0 3.18055e-015 -3.04858e-007 7.95139e-016 -9.1245 -6.6564 -0.0554 2.44449 -28.0753 7.54188 -0.2447 -40.5954 -0.5145 2.76916 51.2252 -1.41968 0.2447 -42.0479 -2.0602 3.18679 -8.89088 -10.8178 -0.3734 -10.4922 12.6407 1.8225 -8.59152 1.98534 9.1245 -6.6564 -0.0554 2.86449 -23.5267 11.373 0.2447 -40.5954 -0.517 -1.99659 39.6479 1.02265 -0.2447 -42.048 -2.0576 2.25152 -17.5574 13.879 0.3734 -10.4922 12.6407 2.28295 -2.28238 -2.0108 
